<svg width="512" height="512" viewBox="0 0 512 512" fill="none" xmlns="http://www.w3.org/2000/svg">
<rect width="512" height="512" rx="112" fill="url(#paint0_linear_3_4)"/>
<g clip-path="url(#clip0_3_4)">
<path d="M154.64 360.084H353.754C377.924 360.084 389.894 348.114 389.894 324.404V183.874C389.894 160.164 377.924 148.194 353.754 148.194H154.64C130.585 148.194 118.5 160.049 118.5 183.874V324.404C118.5 348.229 130.585 360.084 154.64 360.084ZM154.87 341.553C143.36 341.553 137.03 335.453 137.03 323.484V184.795C137.03 172.825 143.36 166.725 154.87 166.725H353.524C364.918 166.725 371.363 172.825 371.363 184.795V323.484C371.363 335.453 364.918 341.553 353.524 341.553H154.87ZM209.77 332.692H298.739C301.846 332.692 304.033 330.62 304.033 327.397C304.033 324.174 301.846 321.988 298.739 321.988H209.77C206.663 321.988 204.361 324.174 204.361 327.397C204.361 330.62 206.663 332.692 209.77 332.692Z" fill="url(#paint1_linear_3_4)" fill-opacity="0.85"/>
</g>
<defs>
<linearGradient id="paint0_linear_3_4" x1="256" y1="0" x2="256" y2="512" gradientUnits="userSpaceOnUse">
<stop stop-color="#3634A3"/>
<stop offset="1" stop-color="#5856D6"/>
</linearGradient>
<linearGradient id="paint1_linear_3_4" x1="254.197" y1="148.194" x2="254.197" y2="360.084" gradientUnits="userSpaceOnUse">
<stop stop-color="white"/>
<stop offset="1" stop-color="white" stop-opacity="0.5"/>
</linearGradient>
<clipPath id="clip0_3_4">
<rect width="271.394" height="212.12" fill="white" transform="translate(118.5 147.964)"/>
</clipPath>
</defs>
</svg>
